<svg width="410" height="307" viewBox="0 0 410 307" fill="none" xmlns="http://www.w3.org/2000/svg">
<rect width="410" height="307" fill="#DDDDDD"/>
<g clip-path="url(#clip0_1_2)">
<path d="M162.645 149.743L156.064 149.297L156.304 146.004C158.018 120.758 179.201 101 204.498 101C229.795 101 250.945 120.758 252.693 146.004L252.933 149.297L246.351 149.743L246.112 146.45C244.603 124.668 226.333 107.62 204.498 107.62C182.663 107.62 164.359 124.703 162.885 146.484L162.645 149.777V149.743Z" fill="#F3F4F6"/>
<path d="M250.808 174.406L244.089 173.686C242.478 173.514 241.381 172.005 241.724 170.427L246.763 147.033C247.106 145.455 248.717 144.529 250.259 145.009L257.115 147.239C258.452 147.685 259.24 149.057 258.931 150.463L253.755 172.348C253.447 173.686 252.179 174.577 250.842 174.44L250.808 174.406Z" fill="#F3F4F6"/>
<path d="M158.189 174.406L164.907 173.686C166.518 173.514 167.615 172.005 167.273 170.427L162.234 147.033C161.891 145.455 160.28 144.529 158.737 145.009L151.882 147.239C150.545 147.685 149.757 149.057 150.065 150.463L155.241 172.348C155.55 173.686 156.818 174.577 158.155 174.44L158.189 174.406Z" fill="#F3F4F6"/>
<path d="M204.498 113.486C184.48 113.486 168.267 129.711 168.267 149.743C168.267 169.775 184.48 186 204.498 186C224.517 186 240.73 169.775 240.73 149.743C240.73 129.711 224.517 113.486 204.498 113.486ZM204.498 162.023C197.711 162.023 192.227 156.535 192.227 149.743C192.227 142.951 197.711 137.463 204.498 137.463C211.285 137.463 216.77 142.951 216.77 149.743C216.77 156.535 211.285 162.023 204.498 162.023Z" fill="#F3F4F6"/>
<path d="M235.383 149.743H234.731C234.731 133.072 221.157 119.489 204.498 119.489V118.837C221.534 118.837 235.383 132.695 235.383 149.777V149.743Z" fill="white"/>
<path d="M225.442 149.743H224.791C224.791 138.561 215.673 129.436 204.498 129.436V128.785C216.05 128.785 225.442 138.183 225.442 149.743Z" fill="white"/>
<path d="M227.224 149.743H226.573C226.573 137.566 216.667 127.653 204.498 127.653V127.001C217.044 127.001 227.224 137.223 227.224 149.743Z" fill="white"/>
<path d="M228.733 149.743H228.081C228.081 136.743 217.49 126.143 204.498 126.143V125.492C217.867 125.492 228.733 136.365 228.733 149.743Z" fill="white"/>
<path d="M232.915 149.743H232.263C232.263 134.41 219.82 121.958 204.498 121.958V121.307C220.163 121.307 232.915 134.067 232.915 149.743Z" fill="white"/>
<path d="M234.251 149.743H233.6C233.6 133.69 220.54 120.621 204.498 120.621V119.969C220.917 119.969 234.251 133.347 234.251 149.743Z" fill="white"/>
</g>
<path d="M209.439 175.659C207.54 173.019 208.14 169.338 210.781 167.439V167.439C213.421 165.54 217.101 166.14 219 168.781L239.104 196.727C241.004 199.367 240.403 203.047 237.763 204.947V204.947C235.123 206.846 231.443 206.245 229.543 203.605L209.439 175.659Z" fill="#F3F4F6"/>
<defs>
<clipPath id="clip0_1_2">
<rect width="109" height="85" fill="white" transform="translate(150 101)"/>
</clipPath>
</defs>
</svg>
